HIERARCHY
ROOT SpineBase
{
  OFFSET 0.000000 0.000000 0.000000
  CHANNELS 6 Xposition Yposition Zposition Zrotation Xrotation Yrotation
  JOINT SpineMid
  {
    OFFSET 0.000000 31.964038 0.000000
    CHANNELS 3 Zrotation Xrotation Yrotation
    JOINT SpineShoulder
    {
      OFFSET -0.016265 23.774747 -0.766397
      CHANNELS 3 Zrotation Xrotation Yrotation
      JOINT Neck
      {
        OFFSET 0.032732 7.864861 -0.551991
        CHANNELS 3 Zrotation Xrotation Yrotation
        JOINT Head
        {
          OFFSET -4.738162 14.393460 0.254395
          CHANNELS 3 Zrotation Xrotation Yrotation
          End Site
          {
            OFFSET 0 0 0
          }
        }
      }
      JOINT ShoulderLeft
      {
        OFFSET -17.278301 -6.073134 6.893667
        CHANNELS 3 Zrotation Xrotation Yrotation
        JOINT ElbowLeft
        {
          OFFSET -2.331314 -28.326031 3.733708
          CHANNELS 3 Zrotation Xrotation Yrotation
          JOINT WristLeft
          {
            OFFSET -2.338047 -22.338194 -3.815796
            CHANNELS 3 Zrotation Xrotation Yrotation
            JOINT HandLeft
            {
              OFFSET -1.926450 -5.187162 -3.945211
              CHANNELS 3 Zrotation Xrotation Yrotation
              JOINT HandTipLeft
              {
                OFFSET -0.438454 -5.751360 -3.304599
                CHANNELS 3 Zrotation Xrotation Yrotation
                End Site
                {
                  OFFSET 0 0 0
                }
              }
              JOINT ThumbLeft
              {
                OFFSET 2.512375 -0.153099 0.701412
                CHANNELS 3 Zrotation Xrotation Yrotation
                End Site
                {
                  OFFSET 0 0 0
                }
              }
            }
          }
        }
      }
      JOINT ShoulderRight
      {
        OFFSET 14.144750 -4.075041 -8.364353
        CHANNELS 3 Zrotation Xrotation Yrotation
        JOINT ElbowRight
        {
          OFFSET 6.877740 -25.457520 -1.655365
          CHANNELS 3 Zrotation Xrotation Yrotation
          JOINT WristRight
          {
            OFFSET -0.777280 -24.005057 -6.630657
            CHANNELS 3 Zrotation Xrotation Yrotation
            JOINT HandRight
            {
              OFFSET -2.809795 -6.358495 -0.712246
              CHANNELS 3 Zrotation Xrotation Yrotation
              JOINT HandTipRight
              {
                OFFSET -0.512794 -7.401643 -0.610400
                CHANNELS 3 Zrotation Xrotation Yrotation
                End Site
                {
                  OFFSET 0 0 0
                }
              }
              JOINT ThumbRight
              {
                OFFSET -2.322498 -0.493132 -2.000123
                CHANNELS 3 Zrotation Xrotation Yrotation
                End Site
                {
                  OFFSET 0 0 0
                }
              }
            }
          }
        }
      }
    }
  }
  JOINT HipLeft
  {
    OFFSET -7.040646 0.255807 -0.990953
    CHANNELS 3 Zrotation Xrotation Yrotation
    JOINT KneeLeft
    {
      OFFSET 2.597189 -35.230475 5.485285
      CHANNELS 3 Zrotation Xrotation Yrotation
      JOINT AnkleLeft
      {
        OFFSET 6.130380 -36.810357 7.161074
        CHANNELS 3 Zrotation Xrotation Yrotation
        JOINT FootLeft
        {
          OFFSET -3.214054 -3.118809 -10.852343
          CHANNELS 3 Zrotation Xrotation Yrotation
          End Site
          {
            OFFSET 0 0 0
          }
        }
      }
    }
  }
  JOINT HipRight
  {
    OFFSET 7.505715 1.446008 -6.423868
    CHANNELS 3 Zrotation Xrotation Yrotation
    JOINT KneeRight
    {
      OFFSET 4.917864 -32.327494 2.233623
      CHANNELS 3 Zrotation Xrotation Yrotation
      JOINT AnkleRight
      {
        OFFSET 2.884538 -38.006573 7.777668
        CHANNELS 3 Zrotation Xrotation Yrotation
        JOINT FootRight
        {
          OFFSET -5.139069 -7.470079 -0.212869
          CHANNELS 3 Zrotation Xrotation Yrotation
          End Site
          {
            OFFSET 0 0 0
          }
        }
      }
    }
  }
}
MOTION
Frames: 6
Frame Time: 0.033333
-23.169128 78.908503 344.680176 -0.000000 0.000000 20.480140 0.000000 0.000000 -20.480140 -0.000000 0.000000 0.000000 -0.000000 0.000000 0.000000 0.000000 0.000000 0.000000 -0.000000 0.000000 0.000000 -0.000000 0.000000 0.000000 -0.000000 0.000000 0.000000 -0.000000 0.000000 0.000000 0.000000 0.000000 0.000000 0.000000 0.000000 0.000000 -0.000000 0.000000 0.000000 -0.000000 0.000000 0.000000 -0.000000 0.000000 0.000000 -0.000000 0.000000 0.000000 0.000000 0.000000 0.000000 0.000000 0.000000 0.000000 0.000000 0.000000 -20.480140 -0.000000 0.000000 0.000000 -0.000000 0.000000 0.000000 0.000000 0.000000 0.000000 0.000000 0.000000 -20.480140 -0.000000 0.000000 0.000000 -0.000000 0.000000 0.000000 0.000000 0.000000 0.000000
-23.434551 78.948575 344.811605 -0.139130 0.040801 20.713396 0.115706 -0.087373 -20.713259 -0.000000 0.000000 0.000000 -0.000000 0.000000 0.000000 0.000000 0.000000 0.000000 0.213630 1.027156 -0.058374 -0.212617 -1.027366 0.054553 3.499516 -3.922757 -1.127262 -4.927242 -3.908703 2.893589 0.000000 0.000000 0.000000 0.000000 0.000000 0.000000 -0.000000 0.000000 0.000000 -1.235490 -0.143414 0.344374 0.912555 -0.861188 0.127536 -0.956119 2.021296 -0.409997 0.000000 0.000000 0.000000 0.000000 0.000000 0.000000 0.115706 -0.087373 -20.713259 -0.000000 0.000000 0.000000 3.792149 -6.935628 -7.688993 0.000000 0.000000 0.000000 0.115706 -0.087373 -20.713259 -0.000000 0.000000 0.000000 0.119160 2.251247 -1.554836 0.000000 0.000000 0.000000
-23.673571 78.983915 344.931947 -0.262770 0.085205 20.929846 0.214995 -0.173450 -20.929325 -0.000000 0.000000 0.000000 -0.000000 0.000000 0.000000 0.000000 0.000000 0.000000 0.364633 1.892300 -0.113993 -1.010237 -0.511837 0.054277 6.881217 -8.224431 -1.739227 -8.456592 -7.672155 5.468309 0.000000 0.000000 0.000000 0.000000 0.000000 0.000000 -0.984180 0.500888 0.204038 -1.374408 -0.736854 0.437621 1.470789 -1.604461 0.230015 -1.581848 3.667906 -0.719091 0.000000 0.000000 0.000000 0.000000 0.000000 0.000000 0.214995 -0.173450 -20.929325 -0.000000 0.000000 0.000000 6.759551 -14.563170 -15.265619 0.000000 0.000000 0.000000 1.591084 -0.047697 -20.748543 -1.242323 -0.605075 -0.184686 0.219613 4.247996 -2.938292 0.000000 0.000000 0.000000
-23.886190 79.014524 345.041202 -0.370893 0.133209 21.129268 0.297942 -0.257948 -21.128166 -0.000000 0.000000 0.000000 -0.000000 0.000000 0.000000 0.000000 0.000000 0.000000 0.450776 2.588845 -0.164416 -1.254750 -0.458658 0.037303 9.142729 -10.992692 -2.147717 -10.855421 -10.827624 7.600653 0.000000 0.000000 0.000000 0.000000 0.000000 0.000000 -1.296944 0.693374 0.280259 -2.077703 -0.976220 0.626434 1.649621 -2.156143 0.278103 -1.819415 4.820533 -0.934001 0.000000 0.000000 0.000000 0.000000 0.000000 0.000000 1.190303 -0.178457 -20.970447 -0.804802 -0.393597 -0.157085 8.579164 -21.624327 -21.863480 0.000000 0.000000 0.000000 2.219273 -0.078144 -20.872744 -1.731264 -0.852498 -0.262667 0.284800 6.011873 -4.161818 0.000000 0.000000 0.000000
-24.072406 79.040402 345.139372 -0.463479 0.184808 21.311461 0.364625 -0.340611 -21.309630 -0.000000 0.000000 0.000000 0.640251 -0.721626 -0.244416 0.000000 0.000000 0.000000 0.470309 3.111635 -0.207755 -1.326817 -0.188323 -0.001526 10.766907 -12.989367 -2.417961 -12.401807 -13.139930 9.242463 0.000000 0.000000 0.000000 0.000000 0.000000 0.000000 -1.497785 0.851403 0.339586 -2.793770 -1.135295 0.801170 1.433704 -2.440301 0.243813 -1.621027 5.365272 -1.059878 0.000000 0.000000 0.000000 0.000000 0.000000 0.000000 1.467199 -0.239168 -21.113345 -0.992005 -0.491811 -0.194964 9.411182 -27.079216 -26.846949 0.000000 0.000000 0.000000 2.735549 -0.111091 -20.990483 -2.961582 -1.274133 -0.532479 1.103797 7.781989 -5.049836 0.000000 0.000000 0.000000
-24.232219 79.061548 345.226455 -0.540511 0.239999 21.476241 0.415127 -0.421215 -21.473583 -0.000000 0.000000 0.000000 0.720184 -0.925471 -0.310974 0.000000 0.000000 0.000000 0.422009 3.456835 -0.242741 -1.226837 0.305868 -0.060115 11.814979 -14.277171 -2.630798 -13.314499 -14.502978 10.371494 0.000000 0.000000 0.000000 0.000000 0.000000 0.000000 -1.589702 0.977094 0.382135 -3.525977 -1.217301 0.965608 0.825408 -2.386189 0.105789 -0.957147 5.206231 -1.095333 0.000000 0.000000 0.000000 0.000000 0.000000 0.000000 1.684351 -0.299168 -21.246020 -1.138709 -0.573713 -0.225284 9.673081 -30.484868 -29.887933 0.000000 0.000000 0.000000 3.139783 -0.145287 -21.101968 -3.387701 -1.463826 -0.617470 1.161918 9.154685 -5.953976 0.000000 0.000000 0.000000
